<svg width="32" height="32" viewBox="0 0 32 32" fill="none" xmlns="http://www.w3.org/2000/svg">
<path d="M11.1928 3.40438C13.1594 2.18591 14.8758 2.67694 15.9068 3.45909C16.3296 3.77978 16.541 3.94014 16.6654 3.94014C16.7898 3.94014 17.0011 3.77978 17.4239 3.45909C18.455 2.67694 20.1714 2.18591 22.1379 3.40438C24.7188 5.00348 25.3028 10.279 19.3498 14.7298C18.2159 15.5775 17.649 16.0012 16.6654 16.0012C15.6818 16.0012 15.1148 15.5775 13.981 14.7298C8.02797 10.279 8.61195 5.00348 11.1928 3.40438Z" stroke="#60A5FA" stroke-width="1.5" stroke-linecap="round"/>
<path d="M5.33203 18.668H8.52512C8.91732 18.668 9.30414 18.7564 9.65492 18.9261L12.3776 20.2434C12.7284 20.4132 13.1152 20.5014 13.5074 20.5014H14.8975C16.242 20.5014 17.332 21.5562 17.332 22.8573C17.332 22.9098 17.296 22.9561 17.2438 22.9705L13.8559 23.9073C13.2481 24.0753 12.5974 24.0168 12.032 23.7432L9.12151 22.335" stroke="#60A5FA" stroke-width="1.5" stroke-linecap="round" stroke-linejoin="round"/>
<path d="M17.332 22L23.4558 20.1186C24.5414 19.7803 25.7148 20.1814 26.3948 21.1231C26.8866 21.8039 26.6863 22.779 25.97 23.1923L15.9492 28.974C15.3119 29.3418 14.5599 29.4315 13.859 29.2235L5.33203 26.6932" stroke="#60A5FA" stroke-width="1.5" stroke-linecap="round" stroke-linejoin="round"/>
</svg>
